<svg id="Layer_1" data-name="Layer 1" xmlns="http://www.w3.org/2000/svg" viewBox="0 0 1000 1000"><defs><style>.cls-1{fill:#fcaa5d;}.cls-2{fill:red;}.cls-3{fill:none;stroke:#000;stroke-linecap:round;stroke-miterlimit:10;stroke-width:11px;}</style></defs><polygon class="cls-1" points="596.48 959.42 499.96 737.31 403.33 959.38 405.5 717.21 226.91 880.78 327.38 660.42 97.7 737.21 279.12 576.78 38.06 553.51 269.05 480.73 58.29 361.43 298.91 388.89 154.9 194.18 363.55 317.14 311.19 80.69 451.78 277.88 500.12 40.58 548.35 277.91 689.03 80.78 636.57 317.21 845.26 194.34 701.17 388.99 941.8 361.63 730.99 480.84 961.94 553.73 720.87 576.88 902.21 737.4 672.57 660.5 772.94 880.9 594.42 717.25 596.48 959.42"/><polygon class="cls-2" points="619.65 590.74 619.58 590.71 619.62 590.71 619.65 590.74"/><ellipse cx="438.27" cy="405.58" rx="21.15" ry="35.73"/><ellipse cx="569.2" cy="405.4" rx="21.15" ry="35.73"/><path class="cls-3" d="M350.2,507.32c17.35,66.23,74.72,113.73,140.51,117.55C563.24,629.08,631,579.34,649.8,505.74"/><ellipse cx="350.2" cy="501.41" rx="15.37" ry="4.34"/><ellipse cx="649.8" cy="501.41" rx="15.37" ry="4.34"/></svg>